<?xml version="1.0" standalone="no"?>
<!DOCTYPE svg PUBLIC "-//W3C//DTD SVG 20010904//EN"
 "http://www.w3.org/TR/2001/REC-SVG-20010904/DTD/svg10.dtd">
<svg version="1.0" xmlns="http://www.w3.org/2000/svg"
 width="700.000000pt" height="700.000000pt" viewBox="0 0 700.000000 700.000000"
 preserveAspectRatio="xMidYMid meet">
<metadata>
Created by potrace 1.11, written by Peter Selinger 2001-2013
</metadata>
<g transform="translate(0.000000,700.000000) scale(0.100000,-0.100000)"
fill="#000000" stroke="none">
<path d="M3387 6554 c-1 -1 -81 -5 -177 -8 -96 -4 -188 -9 -205 -11 -27 -3
-77 -9 -205 -21 -25 -2 -56 -6 -70 -9 -14 -2 -45 -7 -70 -10 -25 -3 -56 -8
-70 -10 -14 -3 -38 -7 -55 -10 -33 -5 -66 -12 -105 -20 -14 -3 -36 -7 -50 -10
-307 -58 -652 -177 -925 -319 -126 -66 -282 -159 -295 -176 -3 -4 -10 -9 -17
-11 -6 -2 -60 -42 -119 -89 -203 -160 -384 -358 -528 -577 -67 -102 -196 -349
-196 -375 0 -8 -4 -18 -9 -23 -24 -26 -108 -308 -136 -460 -10 -49 -19 -99
-21 -110 -10 -50 -18 -192 -18 -315 -1 -544 172 -1078 508 -1570 47 -69 143
-198 156 -210 3 -3 16 -18 29 -35 40 -52 153 -175 255 -278 l100 -100 3 -81
c4 -111 17 -168 60 -255 49 -99 136 -186 235 -233 108 -53 155 -61 371 -60
l191 1 116 -63 c472 -259 1000 -454 1530 -565 104 -22 152 -31 190 -36 14 -2
72 -10 130 -18 196 -29 346 -39 555 -39 226 -1 372 12 550 47 458 91 772 281
949 575 50 81 110 237 120 308 3 24 8 47 11 52 3 5 8 60 10 122 14 353 19 439
29 513 3 17 8 57 12 90 3 33 8 69 10 80 21 110 26 143 29 160 35 235 170 681
360 1190 113 302 215 609 229 695 3 14 10 52 16 85 14 69 18 272 7 360 -49
399 -205 723 -482 1001 -162 163 -347 293 -588 413 -125 63 -151 80 -217 146
-41 41 -77 75 -80 75 -3 0 -21 -15 -40 -34 -30 -29 -38 -32 -60 -24 -39 15
-327 93 -410 112 -90 20 -99 21 -215 41 -49 9 -115 20 -145 25 -105 18 -318
41 -510 55 -169 12 -734 27 -743 19z"/>
<path d="M6302 6197 c-72 -73 -132 -136 -132 -140 0 -12 118 -127 130 -127 11
0 270 256 270 267 0 6 -126 133 -132 133 -2 0 -63 -60 -136 -133z"/>
</g>
</svg>
